<!--?xml version="1.0" standalone="no"?-->
              <svg id="sw-js-blob-svg" viewBox="0 0 100 100" xmlns="http://www.w3.org/2000/svg" version="1.1">
                    <defs> 
                        <linearGradient id="sw-gradient" x1="0" x2="1" y1="1" y2="0">
                            <stop id="stop1" stop-color="rgba(248, 117, 55, 1)" offset="0%"></stop>
                            <stop id="stop2" stop-color="rgba(251, 168, 31, 1)" offset="100%"></stop>
                        </linearGradient>
                    </defs>
                <path fill="url(#sw-gradient)" d="M24.3,-24.7C31.9,-22.5,38.8,-15.3,37.7,-8.6C36.6,-1.9,27.4,4.3,22.2,12.3C17,20.3,15.8,30.1,11,33.2C6.1,36.3,-2.2,32.8,-9.3,28.8C-16.3,24.8,-22,20.4,-26.4,14.5C-30.8,8.5,-33.8,1,-34.4,-7.8C-34.9,-16.6,-32.9,-26.7,-26.7,-29.1C-20.6,-31.6,-10.3,-26.5,-1,-25.3C8.3,-24.2,16.6,-27,24.3,-24.7Z" width="100%" height="100%" transform="translate(50 50)" stroke-width="0" style="transition: all 0.3s ease 0s;" stroke="url(#sw-gradient)"></path>
              </svg>